<?xml version="1.0" encoding="utf-8"?>
<!-- Created with: Axialis IconVectors - www.axialis.com -->
<svg xmlns="http://www.w3.org/2000/svg" version="1.1" xmlns:xlink="http://www.w3.org/1999/xlink" id="canvas1" viewBox="0 0 128 128">
  <defs>
    <radialGradient id="SVGID_1_" cx="50.00%" cy="50.00%" r="50.00%" fx="50.00%" fy="50.00%" gradientUnits="objectBoundingBox">
      <stop offset="0%" stop-color="#FFFFFF"/>
      <stop offset="100%" stop-color="#DFFA87"/>
    </radialGradient>
  </defs>
  <g id="canvas1-group2">
    <g id="canvas1-group">
      <ellipse id="canvas1-oval" fill="url(#SVGID_1_)" stroke="#A4C639" stroke-width="6" stroke-miterlimit="10.000000" cx="64" cy="64" rx="61" ry="61"/>
    </g>
    <path id="canvas1-bezier" fill="#A4C639" d="M59.05,23.5l-11.65,11.64,11.89,11.88,11.64-11.64-11.88-11.88ZM55.54,30.54c.2.01.41.1.57.26l1.43,1.44c.33.32.36.81.07,1.09l-1.09,1.09c-.28.28-.77.25-1.09-.07l-1.43-1.44c-.33-.33-.36-.81-.08-1.09l1.09-1.09c.14-.14.33-.21.53-.19ZM45.14,34.66c-.26,0-.52.1-.71.3l-2.22,2.21c-.06.06-.1.11-.14.18l-15.1,15.09-1.07,6.23-3.53,3.52c-1.07,1.08-1.1,2.79-.09,3.91l-2.15,2.14.82.82-4.96,4.97,4.36,4.36,4.96-4.97.83.83,2.15-2.15c1.12.91,2.75.85,3.79-.2l3.54-3.53,6.22-1.07,15.25-15.25,2.21-2.22c.4-.39.4-1.02,0-1.42l-13.45-13.45c-.2-.2-.45-.3-.71-.3ZM61.63,36.63c.2.01.4.1.56.26l1.44,1.44c.32.32.36.81.07,1.09l-1.09,1.09c-.28.28-.77.25-1.09-.07l-1.44-1.44c-.32-.33-.36-.82-.07-1.1l1.09-1.09c.14-.14.33-.21.53-.19ZM45.51,40.64c.77,0,1.55.3,2.14.89l5.1,5.1c1.19,1.19,1.19,3.09,0,4.28l-10.89,10.88c-1.19,1.19-3.09,1.19-4.27,0l-5.1-5.09c-1.19-1.19-1.19-3.09,0-4.28l10.88-10.89c.6-.59,1.36-.89,2.14-.89ZM45.59,41.3c-1.06,0-2.07.78-2.69,1.63-3.45,3.53-7.09,6.9-10.4,10.55-.78,1.51.43,2.99,1.59,3.85,1.63,1.51,2.99,3.4,4.89,4.57,1.74.56,2.96-1.1,3.99-2.19,3.24-3.31,6.66-6.46,9.75-9.9.54-1.01.1-2.23-.65-3.01-.06-.06-.11-.11-.16-.15-1.85-1.6-3.4-3.54-5.27-5.09-.36-.19-.71-.28-1.06-.28ZM49.08,45.2l-.6,2.26-.59-.59-5.55,5.55,2.94.08c.22-.03.45-.11.61-.28.86-.85,1.16-1.16,1.16-1.16l-.48-.48,1.44-1.44,1.44,1.44-1.44,1.44-.48-.48-1.14,1.14c-.32.32-.83.48-1.26.49,0,0-3.11-.09-3.11-.09-.22.02-.45.11-.62.27l-1.81,1.81s0,0,0,0l-.82.82c.44.66.37,1.56-.21,2.14-.66.66-1.73.66-2.39,0s-.66-1.73,0-2.4c.58-.58,1.48-.65,2.14-.21l.83-.82c.16-.17.25-.4.27-.62,0,0-.09-3.11-.09-3.12,0-.42.17-.93.49-1.25l1.19-1.19c-.18-.38-.12-.85.19-1.16.4-.4,1.04-.4,1.44,0,.39.4.39,1.04,0,1.44-.32.31-.78.38-1.16.19-.15.15-.54.54-1.2,1.21-.16.16-.25.39-.28.61l.09,2.94,7.34-7.34-.6-.6,2.27-.6Z"/>
  </g>
  <g>
    <path fill="#a4c639" d="M64.23,101.21L67.92,101.21L67.92,104.89C67.92,107.21,69.8,109.09,72.11,109.09C74.42,109.09,76.31,107.21,76.31,104.89L76.31,101.21L83.69,101.21L83.69,104.89C83.69,107.21,85.57,109.09,87.89,109.09C90.21,109.09,92.08,107.21,92.08,104.89L92.08,101.21L95.77,101.21L95.77,78.09L64.24,78.09L64.24,101.21z"/>
    <path fill="#a4c639" d="M96.43,56.81c-.33-.18-.69-.27-1.06-.27-.75,0-1.45.4-1.83,1.06l-3.16,5.48c-5.94-5.2-14.82-5.2-20.76,0l-3.17-5.48c-.37-.66-1.07-1.06-1.83-1.06-.37,0-.73.1-1.06.27-.99.59-1.33,1.87-.75,2.88l3.9,6.75c-1.63,2.54-2.48,5.49-2.48,8.48h31.53c0-2.99-.85-5.94-2.48-8.48l3.9-6.75c.58-1.02.23-2.29-.75-2.88ZM73.95,70.74c-.86,0-1.56-.73-1.56-1.59s.7-1.56,1.56-1.56,1.59.7,1.59,1.56-.71,1.59-1.59,1.59ZM86.05,70.74c-.88,0-1.59-.73-1.59-1.59s.71-1.56,1.59-1.56,1.56.7,1.56,1.56-.7,1.59-1.56,1.59Z"/>
    <path fill="#a4c639" d="M103.12,78.09C101.38,78.09,99.96,79.5,99.96,81.25L99.96,91.76C99.96,93.48,101.37,94.89,103.12,94.89C104.87,94.89,106.28,93.48,106.28,91.76L106.28,81.25C106.28,79.51,104.87,78.09,103.12,78.09z"/>
    <path fill="#a4c639" d="M56.88,78.09C55.14,78.09,53.72,79.5,53.72,81.25L53.72,91.76C53.72,93.48,55.13,94.89,56.88,94.89C58.63,94.89,60.04,93.48,60.04,91.76L60.04,81.25C60.04,79.51,58.63,78.09,56.88,78.09z"/>
  </g>
</svg>
